# Blender 3.1.0
# www.blender.org
mtllib Safety_Cone.mtl
o Base
v 0.200478 0.015228 -0.200478
v 0.200478 0.000000 -0.200478
v 0.200478 0.015228 0.200478
v 0.200478 0.000000 0.200478
v -0.200478 0.015228 -0.200478
v -0.200478 0.000000 -0.200478
v -0.200478 0.015228 0.200478
v -0.200478 0.000000 0.200478
vn -0.0000 1.0000 -0.0000
vn -0.0000 -0.0000 1.0000
vn -1.0000 -0.0000 -0.0000
vn 1.0000 -0.0000 -0.0000
vn -0.0000 -0.0000 -1.0000
vt 0.848862 0.989242
vt 0.850405 0.058692
vt 0.927434 0.985718
vt 0.850405 0.026888
vt 0.895630 0.985718
vt 0.848862 0.150567
vt 0.980039 0.149817
vt 0.012985 0.058692
vt 0.948235 0.149817
vt 0.012985 0.026888
vt 0.010187 0.989242
vt 0.013464 0.112508
vt 0.927434 0.148297
vt 0.013464 0.080704
vt 0.895630 0.148297
vt 0.010187 0.150567
vt 0.980039 0.987237
vt 0.850884 0.112508
vt 0.948235 0.987237
vt 0.850884 0.080704
s 0
usemtl Material
f 1/1/1 5/11/1 7/16/1 3/6/1
f 4/9/2 3/7/2 7/17/2 8/19/2
f 8/20/3 7/18/3 5/12/3 6/14/3
f 2/4/4 1/2/4 3/8/4 4/10/4
f 6/15/5 5/13/5 1/3/5 2/5/5
o Cone
v 0.024081 0.266923 0.074113
v -0.063044 0.266923 0.045804
v -0.063044 0.266923 -0.045804
v 0.024081 0.266923 -0.074113
v 0.077927 0.266922 -0.000000
v -0.000000 0.442488 -0.000000
v 0.135069 0.014775 0.043886
v 0.135069 0.014775 -0.043886
v 0.000000 0.014775 0.142020
v 0.083477 0.014775 0.114896
v -0.135069 0.014775 0.043886
v -0.083477 0.014775 0.114896
v -0.083477 0.014775 -0.114896
v -0.135069 0.014775 -0.043886
v 0.083477 0.014775 -0.114896
v 0.000000 0.014775 -0.142020
v 0.058182 0.286505 0.042271
v -0.022224 0.286505 0.068397
v -0.071917 0.286505 -0.000000
v -0.022224 0.286505 -0.068397
v 0.058182 0.286505 -0.042271
v 0.012246 0.391167 0.037688
v 0.039628 0.391167 -0.000000
v -0.032060 0.391167 0.023293
v -0.032060 0.391167 -0.023293
v 0.012246 0.391167 -0.037688
v 0.105085 0.160294 -0.017882
v 0.049480 0.160294 0.094416
v -0.074505 0.160294 0.076234
v -0.095527 0.160294 -0.047300
v 0.015466 0.160294 -0.105468
v 0.040967 0.287785 0.059280
v -0.043720 0.287785 0.057281
v -0.067988 0.287785 -0.023879
v 0.001701 0.287785 -0.072039
v 0.069039 0.287784 -0.020644
v 0.017479 0.345010 0.053795
v 0.019819 0.428990 -0.000000
v -0.045761 0.345010 0.033247
v -0.045761 0.345010 -0.033247
v 0.017479 0.345010 -0.053795
v 0.105085 0.160294 0.017882
v 0.015466 0.160294 0.105468
v -0.095527 0.160294 0.047300
v -0.074505 0.160294 -0.076234
v 0.049480 0.160294 -0.094416
v 0.069039 0.287784 0.020644
v 0.001701 0.287785 0.072039
v -0.067988 0.287784 0.023879
v -0.043720 0.287785 -0.057281
v 0.040967 0.287784 -0.059280
v 0.006124 0.428990 0.018849
v 0.056563 0.345009 -0.000000
v -0.016034 0.428990 0.011650
v -0.016034 0.428990 -0.011650
v 0.006124 0.428990 -0.018849
v 0.027827 0.400937 -0.020217
v 0.047527 0.356875 -0.020117
v 0.033819 0.356875 -0.038985
v -0.010629 0.400937 -0.032712
v -0.004446 0.356875 -0.051417
v -0.026626 0.356875 -0.044211
v -0.034396 0.400937 -0.000000
v -0.050275 0.356875 -0.011661
v -0.050275 0.356875 0.011661
v -0.010629 0.400937 0.032712
v -0.026626 0.356875 0.044211
v -0.004446 0.356875 0.051417
v 0.027827 0.400937 0.020217
v 0.033819 0.356875 0.038985
v 0.047527 0.356875 0.020117
v 0.094835 0.162979 -0.046593
v 0.114845 0.014775 -0.083440
v 0.073619 0.162979 -0.075795
v -0.015008 0.162980 -0.104591
v -0.043867 0.014775 -0.135008
v -0.049336 0.162980 -0.093437
v -0.104110 0.162979 -0.018047
v -0.141957 0.014775 -0.000000
v -0.104110 0.162979 0.018047
v -0.049336 0.162980 0.093437
v -0.043867 0.014775 0.135009
v -0.015008 0.162980 0.104591
v 0.073619 0.162979 0.075795
v 0.114845 0.014775 0.083440
v 0.094835 0.162979 0.046593
v 0.043867 0.014775 -0.135008
v -0.114845 0.014775 -0.083440
v -0.114845 0.014775 0.083440
v 0.043867 0.014775 0.135009
v 0.141957 0.014775 -0.000000
v 0.030173 0.338548 0.049647
v -0.037894 0.338548 0.044038
v -0.053593 0.338548 -0.022430
v 0.004771 0.338548 -0.057901
v 0.056542 0.338548 -0.013354
v 0.018582 0.424535 -0.013500
v 0.036829 0.373933 -0.026758
v 0.030173 0.338548 -0.049647
v -0.007098 0.424535 -0.021844
v -0.014068 0.373933 -0.043295
v -0.037894 0.338548 -0.044038
v -0.022968 0.424535 -0.000000
v -0.045524 0.373933 -0.000000
v -0.053593 0.338548 0.022430
v -0.007098 0.424535 0.021844
v -0.014068 0.373933 0.043295
v 0.004771 0.338548 0.057901
v 0.018582 0.424535 0.013500
v 0.036829 0.373933 0.026758
v 0.056542 0.338548 0.013354
v 0.089388 0.210043 -0.028606
v 0.095282 0.114734 -0.069226
v 0.054829 0.210043 -0.076173
v 0.000416 0.210044 -0.093853
v -0.036394 0.114734 -0.112010
v -0.055502 0.210043 -0.075684
v -0.089131 0.210043 -0.029398
v -0.117775 0.114734 -0.000000
v -0.089131 0.210043 0.029398
v -0.055502 0.210044 0.075684
v -0.036394 0.114734 0.112010
v 0.000416 0.210043 0.093853
v 0.054829 0.210043 0.076173
v 0.095282 0.114734 0.069226
v 0.089388 0.210043 0.028606
v 0.036602 0.113015 -0.112648
v -0.095824 0.113015 -0.069620
v -0.095824 0.113015 0.069620
v 0.036602 0.113015 0.112648
v 0.118445 0.113015 -0.000000
vn 0.2978 0.2666 0.9166
vn 0.5661 0.2688 0.7793
vn 0.5531 0.2876 0.7819
vn 0.2927 0.3207 0.9008
vn 0.7783 0.2727 0.5655
vn 0.6396 0.3262 0.6961
vn 0.2815 0.4125 0.8664
vn -0.7797 0.2666 0.5665
vn -0.5662 0.2688 0.7792
vn -0.5727 0.2876 0.7677
vn -0.7663 0.3207 0.5567
vn -0.2973 0.2727 0.9150
vn -0.4644 0.3262 0.8234
vn -0.7370 0.4126 0.5354
vn -0.7797 0.2666 -0.5665
vn -0.9161 0.2688 -0.2977
vn -0.9071 0.2876 -0.3074
vn -0.7663 0.3207 -0.5567
vn -0.9621 0.2727 -0.0000
vn -0.9266 0.3262 -0.1872
vn -0.7370 0.4126 -0.5354
vn 0.2978 0.2666 -0.9166
vn -0.0000 0.2688 -0.9632
vn 0.0121 0.2876 -0.9577
vn 0.2927 0.3207 -0.9008
vn -0.2973 0.2727 -0.9150
vn -0.1083 0.3262 -0.9391
vn 0.2815 0.4125 -0.8664
vn 0.9638 0.2666 -0.0000
vn 0.9161 0.2688 -0.2976
vn 0.9145 0.2876 -0.2844
vn 0.9472 0.3207 -0.0000
vn 0.7783 0.2727 -0.5655
vn 0.8596 0.3262 -0.3932
vn 0.9109 0.4126 -0.0000
vn 0.7299 0.4314 -0.5303
vn 0.6619 0.5751 -0.4809
vn 0.7216 0.6923 -0.0000
vn 0.2230 0.6923 -0.6863
vn -0.0000 1.0000 -0.0000
vn 0.7500 0.3748 -0.5449
vn 0.6396 0.3262 -0.6961
vn 0.5661 0.2688 -0.7793
vn 0.5531 0.2876 -0.7819
vn -0.2788 0.4314 -0.8580
vn -0.2528 0.5751 -0.7781
vn -0.5838 0.6923 -0.4241
vn -0.2865 0.3748 -0.8817
vn -0.4644 0.3262 -0.8234
vn -0.5662 0.2688 -0.7792
vn -0.5727 0.2876 -0.7677
vn -0.9022 0.4314 -0.0000
vn -0.8181 0.5751 -0.0000
vn -0.5838 0.6923 0.4241
vn -0.9271 0.3748 -0.0000
vn -0.9266 0.3262 0.1872
vn -0.9161 0.2688 0.2977
vn -0.9071 0.2876 0.3074
vn -0.2788 0.4314 0.8580
vn -0.2528 0.5751 0.7781
vn 0.2230 0.6923 0.6863
vn -0.2865 0.3748 0.8817
vn -0.1083 0.3262 0.9391
vn -0.0000 0.2688 0.9632
vn 0.0121 0.2876 0.9577
vn 0.7299 0.4314 0.5303
vn 0.6619 0.5751 0.4809
vn 0.7500 0.3748 0.5449
vn 0.8596 0.3262 0.3932
vn 0.9161 0.2688 0.2976
vn 0.9145 0.2876 0.2844
vn 0.9249 0.2313 -0.3016
vn 0.8616 0.2505 -0.4414
vn 0.9153 0.2679 -0.3008
vn 0.9558 0.2489 -0.1566
vn 0.7871 0.2311 -0.5719
vn 0.7865 0.2341 -0.5715
vn 0.5727 0.2313 -0.7864
vn 0.6861 0.2505 -0.6830
vn 0.4443 0.2489 -0.8606
vn 0.5689 0.2679 -0.7775
vn -0.0011 0.2313 -0.9729
vn -0.1536 0.2505 -0.9558
vn -0.0032 0.2679 -0.9634
vn 0.1464 0.2489 -0.9574
vn -0.3007 0.2311 -0.9253
vn -0.3004 0.2341 -0.9246
vn -0.5710 0.2313 -0.7877
vn -0.4376 0.2505 -0.8636
vn -0.6812 0.2489 -0.6885
vn -0.5637 0.2679 -0.7813
vn -0.9256 0.2313 -0.2996
vn -0.9565 0.2505 -0.1493
vn -0.9173 0.2679 -0.2946
vn -0.8653 0.2489 -0.4351
vn -0.9729 0.2311 -0.0000
vn -0.9722 0.2341 -0.0000
vn -0.9256 0.2313 0.2996
vn -0.9565 0.2505 0.1493
vn -0.8653 0.2489 0.4351
vn -0.9173 0.2679 0.2946
vn -0.5710 0.2313 0.7877
vn -0.4376 0.2505 0.8636
vn -0.5637 0.2679 0.7813
vn -0.6812 0.2489 0.6885
vn -0.3007 0.2311 0.9253
vn -0.3004 0.2341 0.9246
vn -0.0011 0.2313 0.9729
vn -0.1536 0.2505 0.9558
vn 0.1464 0.2489 0.9574
vn -0.0032 0.2679 0.9634
vn 0.5727 0.2313 0.7864
vn 0.6861 0.2505 0.6830
vn 0.5689 0.2679 0.7775
vn 0.4443 0.2489 0.8606
vn 0.7871 0.2311 0.5719
vn 0.7865 0.2341 0.5715
vn 0.9249 0.2313 0.3016
vn 0.8616 0.2505 0.4414
vn 0.9558 0.2489 0.1566
vn 0.9153 0.2679 0.3008
vn 0.3008 0.2290 -0.9258
vn 0.3006 0.2319 -0.9251
vn -0.7875 0.2290 -0.5722
vn -0.7870 0.2319 -0.5718
vn -0.7875 0.2290 0.5722
vn -0.7870 0.2319 0.5718
vn 0.3008 0.2290 0.9258
vn 0.3006 0.2319 0.9251
vn 0.9734 0.2290 -0.0000
vn 0.9728 0.2319 -0.0000
vt 0.722555 0.469048
vt 0.587745 0.532212
vt 0.492272 0.642218
vt 0.448734 0.784738
vt 0.463785 0.941954
vt 0.880203 0.461463
vt 0.740068 0.760754
vt 0.833356 0.018214
vt 0.015306 0.957223
vt 0.986570 0.025715
vt 0.530817 0.079203
vt 0.679955 0.035405
vt 0.267458 0.246212
vt 0.391390 0.149929
vt 0.086040 0.500888
vt 0.164290 0.364803
vt 0.011988 0.802654
vt 0.035128 0.648801
vt 0.801522 0.490984
vt 0.664342 0.522103
vt 0.557000 0.601954
vt 0.493061 0.719533
vt 0.481704 0.859841
vt 0.755839 0.660501
vt 0.671508 0.862559
vt 0.831186 0.678474
vt 0.693484 0.679565
vt 0.653111 0.726114
vt 0.643058 0.790536
vt 0.275552 0.957189
vt 0.927987 0.278118
vt 0.705189 0.289945
vt 0.505988 0.377569
vt 0.356256 0.532649
vt 0.276587 0.734496
vt 0.762371 0.496163
vt 0.632731 0.540882
vt 0.536685 0.631460
vt 0.486630 0.755657
vt 0.490040 0.898126
vt 0.747796 0.589498
vt 0.726085 0.808041
vt 0.784913 0.740228
vt 0.656481 0.625756
vt 0.594605 0.697089
vt 0.571626 0.792632
vt 0.867370 0.273970
vt 0.648655 0.306065
vt 0.460242 0.412969
vt 0.327559 0.582933
vt 0.268482 0.792987
vt 0.840590 0.493752
vt 0.699162 0.510636
vt 0.583350 0.577685
vt 0.507203 0.685560
vt 0.481258 0.820325
vt 0.751202 0.720077
vt 0.593590 0.901061
vt 0.858261 0.595840
vt 0.720928 0.725182
vt 0.702149 0.746834
vt 0.701375 0.777522
vt 0.667813 0.819062
vt 0.601912 0.860005
vt 0.593171 0.824047
vt 0.658486 0.758568
vt 0.592552 0.763047
vt 0.599581 0.731289
vt 0.680604 0.709177
vt 0.624734 0.681354
vt 0.645162 0.657802
vt 0.726372 0.680297
vt 0.691037 0.625847
vt 0.721477 0.614398
vt 0.787586 0.680972
vt 0.781947 0.606367
vt 0.818789 0.609918
vt 0.273455 0.905083
vt 0.010558 0.880071
vt 0.270967 0.844490
vt 0.292492 0.686387
vt 0.057256 0.573804
vt 0.311254 0.630800
vt 0.388926 0.494444
vt 0.213144 0.303123
vt 0.426986 0.450644
vt 0.551048 0.354766
vt 0.459630 0.111392
vt 0.603359 0.328486
vt 0.756254 0.285203
vt 0.756435 0.023665
vt 0.816064 0.279223
vt 0.020282 0.725326
vt 0.122049 0.431104
vt 0.327279 0.195212
vt 0.604569 0.054075
vt 0.910138 0.019073
vt 0.765861 0.577110
vt 0.666813 0.608176
vt 0.596014 0.676688
vt 0.563400 0.772128
vt 0.575667 0.882810
vt 0.702107 0.798402
vt 0.624479 0.834248
vt 0.561925 0.812279
vt 0.691714 0.761067
vt 0.619904 0.751951
vt 0.578659 0.709803
vt 0.704392 0.729809
vt 0.652492 0.684795
vt 0.636487 0.630030
vt 0.733544 0.712839
vt 0.714363 0.643041
vt 0.726337 0.584262
vt 0.771979 0.717850
vt 0.796484 0.635916
vt 0.837632 0.580693
vt 0.357086 0.918296
vt 0.187213 0.876548
vt 0.351626 0.820446
vt 0.362864 0.727662
vt 0.223285 0.631367
vt 0.392424 0.638402
vt 0.437034 0.559130
vt 0.345617 0.418333
vt 0.497771 0.489199
vt 0.569954 0.433956
vt 0.539452 0.267690
vt 0.654048 0.392233
vt 0.744035 0.368089
vt 0.776543 0.198372
vt 0.841142 0.359582
vt 0.191202 0.751383
vt 0.271523 0.517243
vt 0.433240 0.331236
vt 0.653630 0.219425
vt 0.901789 0.192306
s 1
usemtl Material
f 9/21/6 40/56/7 100/118/8 45/61/9
f 25/39/10 78/96/11 100/118/8 40/56/7
f 30/44/12 45/61/9 100/118/8 78/96/11
f 10/22/13 41/57/14 101/119/15 47/64/16
f 26/40/17 75/93/18 101/119/15 41/57/14
f 32/47/19 47/64/16 101/119/15 75/93/18
f 11/23/20 42/58/21 102/120/22 48/65/23
f 27/41/24 72/90/25 102/120/22 42/58/21
f 33/48/26 48/65/23 102/120/22 72/90/25
f 12/24/27 43/59/28 103/121/29 49/66/30
f 28/42/31 69/87/32 103/121/29 43/59/28
f 34/49/33 49/66/30 103/121/29 69/87/32
f 13/25/34 44/60/35 104/122/36 61/78/37
f 29/43/38 66/84/39 104/122/36 44/60/35
f 31/45/40 61/78/37 104/122/36 66/84/39
f 31/45/40 65/83/41 105/123/42 46/62/43
f 34/49/33 64/82/44 105/123/42 65/83/41
f 14/27/45 46/62/43 105/123/42 64/82/44
f 31/45/40 66/84/39 106/124/46 65/83/41
f 29/43/38 67/85/47 106/124/46 66/84/39
f 34/49/33 65/83/41 106/124/46 67/85/47
f 29/43/38 59/76/48 107/125/49 67/85/47
f 12/24/27 49/66/30 107/125/49 59/76/48
f 34/49/33 67/85/47 107/125/49 49/66/30
f 34/49/33 68/86/50 108/126/51 64/82/44
f 33/48/26 63/81/52 108/126/51 68/86/50
f 14/27/45 64/82/44 108/126/51 63/81/52
f 34/49/33 69/87/32 109/127/53 68/86/50
f 28/42/31 70/88/54 109/127/53 69/87/32
f 33/48/26 68/86/50 109/127/53 70/88/54
f 28/42/31 58/75/55 110/128/56 70/88/54
f 11/23/20 48/65/23 110/128/56 58/75/55
f 33/48/26 70/88/54 110/128/56 48/65/23
f 33/48/26 71/89/57 111/129/58 63/81/52
f 32/47/19 62/80/59 111/129/58 71/89/57
f 14/27/45 63/81/52 111/129/58 62/80/59
f 33/48/26 72/90/25 112/130/60 71/89/57
f 27/41/24 73/91/61 112/130/60 72/90/25
f 32/47/19 71/89/57 112/130/60 73/91/61
f 27/41/24 57/74/62 113/131/63 73/91/61
f 10/22/13 47/64/16 113/131/63 57/74/62
f 32/47/19 73/91/61 113/131/63 47/64/16
f 32/47/19 74/92/64 114/132/65 62/80/59
f 30/44/12 60/77/66 114/132/65 74/92/64
f 14/27/45 62/80/59 114/132/65 60/77/66
f 32/47/19 75/93/18 115/133/67 74/92/64
f 26/40/17 76/94/68 115/133/67 75/93/18
f 30/44/12 74/92/64 115/133/67 76/94/68
f 26/40/17 56/73/69 116/134/70 76/94/68
f 9/21/6 45/61/9 116/134/70 56/73/69
f 30/44/12 76/94/68 116/134/70 45/61/9
f 30/44/12 77/95/71 117/135/72 60/77/66
f 31/46/40 46/63/43 117/135/72 77/95/71
f 14/27/45 60/77/66 117/135/72 46/63/43
f 30/44/12 78/96/11 118/136/73 77/95/71
f 25/39/10 79/97/74 118/136/73 78/96/11
f 31/46/40 77/95/71 118/136/73 79/97/74
f 25/39/10 55/72/75 119/137/76 79/97/74
f 13/26/34 61/79/37 119/137/76 55/72/75
f 31/46/40 79/97/74 119/137/76 61/79/37
f 16/29/77 80/98/78 120/138/79 35/50/80
f 29/43/38 44/60/35 120/138/79 80/98/78
f 13/25/34 35/50/80 120/138/79 44/60/35
f 16/29/77 81/99/81 121/139/82 80/98/78
f 23/37/83 82/100/84 121/139/82 81/99/81
f 29/43/38 80/98/78 121/139/82 82/100/84
f 23/37/83 54/71/85 122/140/86 82/100/84
f 12/24/27 59/76/48 122/140/86 54/71/85
f 29/43/38 82/100/84 122/140/86 59/76/48
f 24/38/87 83/101/88 123/141/89 39/55/90
f 28/42/31 43/59/28 123/141/89 83/101/88
f 12/24/27 39/55/90 123/141/89 43/59/28
f 24/38/87 84/102/91 124/142/92 83/101/88
f 21/35/93 85/103/94 124/142/92 84/102/91
f 28/42/31 83/101/88 124/142/92 85/103/94
f 21/35/93 53/70/95 125/143/96 85/103/94
f 11/23/20 58/75/55 125/143/96 53/70/95
f 28/42/31 85/103/94 125/143/96 58/75/55
f 22/36/97 86/104/98 126/144/99 38/54/100
f 27/41/24 42/58/21 126/144/99 86/104/98
f 11/23/20 38/54/100 126/144/99 42/58/21
f 22/36/97 87/105/101 127/145/102 86/104/98
f 19/33/103 88/106/104 127/145/102 87/105/101
f 27/41/24 86/104/98 127/145/102 88/106/104
f 19/33/103 52/69/105 128/146/106 88/106/104
f 10/22/13 57/74/62 128/146/106 52/69/105
f 27/41/24 88/106/104 128/146/106 57/74/62
f 20/34/107 89/107/108 129/147/109 37/53/110
f 26/40/17 41/57/14 129/147/109 89/107/108
f 10/22/13 37/53/110 129/147/109 41/57/14
f 20/34/107 90/108/111 130/148/112 89/107/108
f 17/31/113 91/109/114 130/148/112 90/108/111
f 26/40/17 89/107/108 130/148/112 91/109/114
f 17/31/113 51/68/115 131/149/116 91/109/114
f 9/21/6 56/73/69 131/149/116 51/68/115
f 26/40/17 91/109/114 131/149/116 56/73/69
f 18/32/117 92/110/118 132/150/119 36/52/120
f 25/39/10 40/56/7 132/150/119 92/110/118
f 9/21/6 36/52/120 132/150/119 40/56/7
f 18/32/117 93/111/121 133/151/122 92/110/118
f 15/28/123 94/112/124 133/151/122 93/111/121
f 25/39/10 92/110/118 133/151/122 94/112/124
f 15/28/123 50/67/125 134/152/126 94/112/124
f 13/26/34 55/72/75 134/152/126 50/67/125
f 25/39/10 94/112/124 134/152/126 55/72/75
f 23/37/83 95/113/127 135/153/128 54/71/85
f 24/38/87 39/55/90 135/153/128 95/113/127
f 12/24/27 54/71/85 135/153/128 39/55/90
f 21/35/93 96/114/129 136/154/130 53/70/95
f 22/36/97 38/54/100 136/154/130 96/114/129
f 11/23/20 53/70/95 136/154/130 38/54/100
f 19/33/103 97/115/131 137/155/132 52/69/105
f 20/34/107 37/53/110 137/155/132 97/115/131
f 10/22/13 52/69/105 137/155/132 37/53/110
f 17/31/113 98/116/133 138/156/134 51/68/115
f 18/32/117 36/52/120 138/156/134 98/116/133
f 9/21/6 51/68/115 138/156/134 36/52/120
f 15/28/123 99/117/135 139/157/136 50/67/125
f 16/30/77 35/51/80 139/157/136 99/117/135
f 13/26/34 50/67/125 139/157/136 35/51/80
